<svg width="31" height="27" viewBox="0 0 31 27" fill="none" xmlns="http://www.w3.org/2000/svg">
<path d="M11.125 0.375C7.09794 0.375 3.83335 3.63959 3.83335 7.66667C3.83335 11.6937 7.09794 14.9583 11.125 14.9583C15.1521 14.9583 18.4167 11.6937 18.4167 7.66667C18.4167 3.63959 15.1521 0.375 11.125 0.375ZM6.75002 7.66667C6.75002 5.25042 8.70878 3.29167 11.125 3.29167C13.5413 3.29167 15.5 5.25042 15.5 7.66667C15.5 10.0829 13.5413 12.0417 11.125 12.0417C8.70878 12.0417 6.75002 10.0829 6.75002 7.66667Z" fill="#2E3A59"/>
<path d="M22.6581 7.98499C22.2479 7.77581 21.7939 7.66675 21.3334 7.66675V4.75009C22.2544 4.75009 23.1624 4.96811 23.983 5.38649C24.0734 5.43257 24.1624 5.48093 24.25 5.53152C24.9579 5.9402 25.573 6.49371 26.0544 7.15706C26.5954 7.90251 26.9522 8.76548 27.0956 9.67533C27.239 10.5852 27.1648 11.516 26.8793 12.3917C26.5937 13.2674 26.1049 14.0631 25.4527 14.7135C24.8006 15.364 24.0037 15.8507 23.1272 16.134C22.3473 16.386 21.5242 16.4706 20.7114 16.3834C20.6109 16.3726 20.5104 16.3592 20.4103 16.3432C19.5014 16.1975 18.6399 15.8388 17.8962 15.2965L17.8947 15.2954L19.614 12.9394C19.986 13.2108 20.4171 13.3903 20.8718 13.4632C21.3265 13.536 21.7921 13.5002 22.2303 13.3586C22.6685 13.217 23.0669 12.9736 23.393 12.6484C23.7191 12.3232 23.9635 11.9253 24.1062 11.4875C24.249 11.0497 24.2861 10.5843 24.2144 10.1293C24.1427 9.67443 23.9643 9.24296 23.6938 8.87025C23.4233 8.49753 23.0684 8.19417 22.6581 7.98499Z" fill="#2E3A59"/>
<path d="M27.1639 26.625C27.1639 25.8593 27.0131 25.1011 26.7201 24.3937C26.4271 23.6863 25.9976 23.0436 25.4562 22.5022C24.9148 21.9607 24.272 21.5313 23.5646 21.2383C22.8572 20.9452 22.099 20.7944 21.3334 20.7944V17.875C22.3281 17.875 23.3143 18.0446 24.25 18.3754C24.3952 18.4268 24.5392 18.482 24.6818 18.5411C25.7434 18.9808 26.708 19.6253 27.5205 20.4378C28.3331 21.2503 28.9776 22.2149 29.4173 23.2765C29.4764 23.4191 29.5316 23.5631 29.5829 23.7083C29.9138 24.644 30.0834 25.6303 30.0834 26.625H27.1639Z" fill="#2E3A59"/>
<path d="M21.3334 26.625H18.4167C18.4167 22.5979 15.1521 19.3333 11.125 19.3333C7.09794 19.3333 3.83335 22.5979 3.83335 26.625H0.916687C0.916687 20.9871 5.48711 16.4167 11.125 16.4167C16.7629 16.4167 21.3334 20.9871 21.3334 26.625Z" fill="#2E3A59"/>
</svg>
